<svg xmlns="http://www.w3.org/2000/svg" width="24" height="16" viewBox="0 0 24 16">
  <g id="Group_3450" data-name="Group 3450" transform="translate(-1665 -372)">
    <g id="Path_3744" data-name="Path 3744" transform="translate(1665 372)" fill="none">
      <path d="M12,0c6.627,0,12,8,12,8s-5.373,8-12,8S0,8,0,8,5.373,0,12,0Z" stroke="none"/>
      <path d="M 12 2 C 9.245820045471191 2 6.63517951965332 3.857439994812012 4.930099487304688 5.415650367736816 C 3.906320571899414 6.35124397277832 3.073280334472656 7.299205780029297 2.504293441772461 8.001258850097656 C 3.059047698974609 8.685901641845703 3.867424011230469 9.605850219726562 4.869619369506836 10.52886962890625 C 6.588979721069336 12.112380027771 9.221710205078125 14 12 14 C 14.75417995452881 14 17.36482048034668 12.14256000518799 19.06990051269531 10.5843505859375 C 20.09367942810059 9.64875602722168 20.92671966552734 8.700794219970703 21.49570655822754 7.998741149902344 C 20.94095230102539 7.314098358154297 20.13257598876953 6.394149780273438 19.13038063049316 5.47113037109375 C 17.41102027893066 3.887619972229004 14.77828979492188 2 12 2 M 12 0 C 18.62742042541504 0 24 8 24 8 C 24 8 18.62742042541504 16 12 16 C 5.372579574584961 16 0 8 0 8 C 0 8 5.372579574584961 0 12 0 Z" stroke="none" fill="#f3c369"/>
    </g>
    <circle id="Ellipse_131" data-name="Ellipse 131" cx="3" cy="3" r="3" transform="translate(1674 377)" fill="#f3c369"/>
  </g>
</svg>
