<svg xmlns="http://www.w3.org/2000/svg" width="100" height="100" viewBox="0 0 100 100">
  <g id="Group_3454" data-name="Group 3454" transform="translate(-252 -344)">
    <g id="Group_3424" data-name="Group 3424" transform="translate(251.543 343.544)">
      <circle id="Ellipse_125" data-name="Ellipse 125" cx="50" cy="50" r="50" transform="translate(0.457 0.456)" fill="#364181"/>
    </g>
    <g id="Group_3443" data-name="Group 3443" transform="translate(251.543 343.544)">
      <path id="Path_3743" data-name="Path 3743" d="M83.438,43.291S99.72,55.312,99.606,56.249c-.048.4-.157,1.182-.286,1.98a50.674,50.674,0,0,1-1.607,6.757A50.116,50.116,0,0,1,57.4,99.457c-2.252.346-26.724-20.284-26.724-20.284Z" transform="translate(0.457 0.456)" fill="#282461"/>
    </g>
    <g id="Group_3442" data-name="Group 3442" transform="translate(-2.935 -0.148)">
      <g id="Group_3426" data-name="Group 3426" transform="translate(269.935 363.049)">
        <path id="Path_3741" data-name="Path 3741" d="M111.349,81.926h-3.075C105.882,75.65,100.689,70.4,93.9,67.163v-8.7s-5.871-.664-9.06,5.814a38.3,38.3,0,0,0-6.761-.6c-12.184,0-22.757,5.675-28.045,13.991a2.855,2.855,0,0,1-1.053-.646,4.486,4.486,0,0,1-1.106-2.9A1.439,1.439,0,0,0,45,74.075a7.206,7.206,0,0,0,1.936,4.943,5.645,5.645,0,0,0,1.706,1.152,22.042,22.042,0,0,0-2.2,9.578c0,7.722,4.075,14.659,10.548,19.433v8.8a3.073,3.073,0,0,0,3.09,3.055h4.368a3.073,3.073,0,0,0,3.09-3.055v-3.645a38.183,38.183,0,0,0,21.1,0v3.645a3.073,3.073,0,0,0,3.09,3.055h4.368a3.073,3.073,0,0,0,3.09-3.055v-8.8a26.192,26.192,0,0,0,9.1-11.611h3.075A3.629,3.629,0,0,0,115,93.962V85.534A3.63,3.63,0,0,0,111.349,81.926Z" transform="translate(-44.999 -58.439)" fill="#ef93bd"/>
      </g>
      <g id="Group_3427" data-name="Group 3427" transform="translate(318.839 383.825)">
        <ellipse id="Ellipse_126" data-name="Ellipse 126" cx="2.636" cy="2.636" rx="2.636" ry="2.636" fill="#282461"/>
      </g>
      <g id="Group_3428" data-name="Group 3428" transform="translate(296.145 372.915)">
        <path id="Path_3742" data-name="Path 3742" d="M137.385,92.876h-8.947a1.438,1.438,0,0,1,0-2.876h8.947a1.438,1.438,0,1,1,0,2.876Z" transform="translate(-127 -90)" fill="#3d2a72"/>
      </g>
      <g id="Group_3441" data-name="Group 3441" transform="translate(294.868 349.648)">
        <g id="Group_3429" data-name="Group 3429">
          <ellipse id="Ellipse_127" data-name="Ellipse 127" cx="8.148" cy="8.148" rx="8.148" ry="8.148" fill="#ffcd02"/>
        </g>
        <g id="Group_3430" data-name="Group 3430" transform="translate(2.036 2.037)">
          <ellipse id="Ellipse_128" data-name="Ellipse 128" cx="6.111" cy="6.111" rx="6.111" ry="6.111" fill="#f9b65f"/>
        </g>
      </g>
    </g>
  </g>
</svg>
